<mxfile host="app.diagrams.net" modified="2020-10-09T04:55:03.965Z" agent="5.0 (Windows)" etag="hxCmxgCIao4yIP1ppQOj" version="13.7.9" type="github">
  <diagram id="6s5GzOje2M2ObtO5ouhF" name="Page-1">
    <mxGraphModel dx="868" dy="479" grid="1" gridSize="10" guides="1" tooltips="1" connect="1" arrows="1" fold="1" page="1" pageScale="1" pageWidth="850" pageHeight="1100" math="0" shadow="0">
      <root>
        <mxCell id="0" />
        <mxCell id="1" parent="0" />
        <mxCell id="f8xPi4oDnC_ocWhXf7jK-13" style="edgeStyle=orthogonalEdgeStyle;rounded=0;orthogonalLoop=1;jettySize=auto;html=1;exitX=0;exitY=0.25;exitDx=0;exitDy=0;entryX=1;entryY=0;entryDx=0;entryDy=0;fontColor=#0F0F0F;" edge="1" parent="1" source="f8xPi4oDnC_ocWhXf7jK-1" target="f8xPi4oDnC_ocWhXf7jK-7">
          <mxGeometry relative="1" as="geometry" />
        </mxCell>
        <mxCell id="f8xPi4oDnC_ocWhXf7jK-1" value="" style="whiteSpace=wrap;html=1;aspect=fixed;fillColor=#6600CC;" vertex="1" parent="1">
          <mxGeometry x="760" y="200" width="80" height="80" as="geometry" />
        </mxCell>
        <mxCell id="f8xPi4oDnC_ocWhXf7jK-11" style="edgeStyle=orthogonalEdgeStyle;rounded=0;orthogonalLoop=1;jettySize=auto;html=1;exitX=1;exitY=0.25;exitDx=0;exitDy=0;entryX=0;entryY=0;entryDx=0;entryDy=0;fontColor=#0F0F0F;" edge="1" parent="1" source="f8xPi4oDnC_ocWhXf7jK-2" target="f8xPi4oDnC_ocWhXf7jK-4">
          <mxGeometry relative="1" as="geometry" />
        </mxCell>
        <mxCell id="f8xPi4oDnC_ocWhXf7jK-2" value="" style="whiteSpace=wrap;html=1;aspect=fixed;fillColor=#6600CC;" vertex="1" parent="1">
          <mxGeometry x="70" y="200" width="80" height="80" as="geometry" />
        </mxCell>
        <mxCell id="f8xPi4oDnC_ocWhXf7jK-12" style="edgeStyle=orthogonalEdgeStyle;rounded=0;orthogonalLoop=1;jettySize=auto;html=1;exitX=0;exitY=1;exitDx=0;exitDy=0;entryX=1;entryY=0.75;entryDx=0;entryDy=0;fontColor=#0F0F0F;" edge="1" parent="1" source="f8xPi4oDnC_ocWhXf7jK-4" target="f8xPi4oDnC_ocWhXf7jK-2">
          <mxGeometry relative="1" as="geometry" />
        </mxCell>
        <mxCell id="f8xPi4oDnC_ocWhXf7jK-16" style="edgeStyle=orthogonalEdgeStyle;rounded=0;orthogonalLoop=1;jettySize=auto;html=1;exitX=1;exitY=1;exitDx=0;exitDy=0;entryX=0;entryY=1;entryDx=0;entryDy=0;fontColor=#0F0F0F;" edge="1" parent="1" source="f8xPi4oDnC_ocWhXf7jK-4" target="f8xPi4oDnC_ocWhXf7jK-7">
          <mxGeometry relative="1" as="geometry" />
        </mxCell>
        <mxCell id="f8xPi4oDnC_ocWhXf7jK-4" value="" style="ellipse;whiteSpace=wrap;html=1;fillColor=#FCD22A;" vertex="1" parent="1">
          <mxGeometry x="340" y="200" width="120" height="80" as="geometry" />
        </mxCell>
        <mxCell id="f8xPi4oDnC_ocWhXf7jK-5" value="Administrator" style="text;html=1;strokeColor=none;fillColor=none;align=center;verticalAlign=middle;whiteSpace=wrap;rounded=0;fontColor=#FFFFFF;" vertex="1" parent="1">
          <mxGeometry x="90" y="230" width="40" height="20" as="geometry" />
        </mxCell>
        <mxCell id="f8xPi4oDnC_ocWhXf7jK-6" value="User" style="text;html=1;strokeColor=none;fillColor=none;align=center;verticalAlign=middle;whiteSpace=wrap;rounded=0;fontColor=#FFFFFF;" vertex="1" parent="1">
          <mxGeometry x="670" y="230" width="40" height="20" as="geometry" />
        </mxCell>
        <mxCell id="f8xPi4oDnC_ocWhXf7jK-14" style="edgeStyle=orthogonalEdgeStyle;rounded=0;orthogonalLoop=1;jettySize=auto;html=1;exitX=1;exitY=1;exitDx=0;exitDy=0;entryX=0;entryY=0.75;entryDx=0;entryDy=0;fontColor=#0F0F0F;" edge="1" parent="1" source="f8xPi4oDnC_ocWhXf7jK-7" target="f8xPi4oDnC_ocWhXf7jK-1">
          <mxGeometry relative="1" as="geometry" />
        </mxCell>
        <mxCell id="f8xPi4oDnC_ocWhXf7jK-15" style="edgeStyle=orthogonalEdgeStyle;rounded=0;orthogonalLoop=1;jettySize=auto;html=1;exitX=0;exitY=0;exitDx=0;exitDy=0;entryX=1;entryY=0;entryDx=0;entryDy=0;fontColor=#0F0F0F;" edge="1" parent="1" source="f8xPi4oDnC_ocWhXf7jK-7" target="f8xPi4oDnC_ocWhXf7jK-4">
          <mxGeometry relative="1" as="geometry" />
        </mxCell>
        <mxCell id="f8xPi4oDnC_ocWhXf7jK-7" value="" style="ellipse;whiteSpace=wrap;html=1;aspect=fixed;fillColor=#FCD22A;fontColor=#FFFFFF;" vertex="1" parent="1">
          <mxGeometry x="560" y="200" width="80" height="80" as="geometry" />
        </mxCell>
        <mxCell id="f8xPi4oDnC_ocWhXf7jK-8" value="Online shopping" style="text;html=1;strokeColor=none;fillColor=none;align=center;verticalAlign=middle;whiteSpace=wrap;rounded=0;fontColor=#0F0F0F;" vertex="1" parent="1">
          <mxGeometry x="380" y="230" width="40" height="20" as="geometry" />
        </mxCell>
        <mxCell id="f8xPi4oDnC_ocWhXf7jK-9" value="Design" style="text;html=1;strokeColor=none;fillColor=none;align=center;verticalAlign=middle;whiteSpace=wrap;rounded=0;fontColor=#0F0F0F;" vertex="1" parent="1">
          <mxGeometry x="580" y="230" width="40" height="20" as="geometry" />
        </mxCell>
        <mxCell id="f8xPi4oDnC_ocWhXf7jK-10" value="User" style="text;html=1;strokeColor=none;fillColor=none;align=center;verticalAlign=middle;whiteSpace=wrap;rounded=0;fontColor=#FFFFFF;" vertex="1" parent="1">
          <mxGeometry x="780" y="230" width="40" height="20" as="geometry" />
        </mxCell>
        <mxCell id="f8xPi4oDnC_ocWhXf7jK-18" value="information updte" style="text;html=1;strokeColor=none;fillColor=none;align=center;verticalAlign=middle;whiteSpace=wrap;rounded=0;fontColor=#0F0F0F;" vertex="1" parent="1">
          <mxGeometry x="200" y="160" width="40" height="20" as="geometry" />
        </mxCell>
        <mxCell id="f8xPi4oDnC_ocWhXf7jK-19" value="Management Report" style="text;html=1;align=center;verticalAlign=middle;resizable=0;points=[];autosize=1;fontColor=#0F0F0F;" vertex="1" parent="1">
          <mxGeometry x="155" y="290" width="130" height="20" as="geometry" />
        </mxCell>
        <mxCell id="f8xPi4oDnC_ocWhXf7jK-20" value="add to cart and checkout" style="text;html=1;strokeColor=none;fillColor=none;align=center;verticalAlign=middle;whiteSpace=wrap;rounded=0;fontColor=#0F0F0F;" vertex="1" parent="1">
          <mxGeometry x="490" y="160" width="40" height="20" as="geometry" />
        </mxCell>
        <mxCell id="f8xPi4oDnC_ocWhXf7jK-21" value="cart view" style="text;html=1;strokeColor=none;fillColor=none;align=center;verticalAlign=middle;whiteSpace=wrap;rounded=0;fontColor=#0F0F0F;" vertex="1" parent="1">
          <mxGeometry x="490" y="290" width="40" height="20" as="geometry" />
        </mxCell>
        <mxCell id="f8xPi4oDnC_ocWhXf7jK-22" value="&lt;div&gt;design custom &lt;br&gt;&lt;/div&gt;&lt;div&gt;product&lt;br&gt;&lt;/div&gt;" style="text;html=1;strokeColor=none;fillColor=none;align=center;verticalAlign=middle;whiteSpace=wrap;rounded=0;fontColor=#0F0F0F;" vertex="1" parent="1">
          <mxGeometry x="680" y="160" width="40" height="20" as="geometry" />
        </mxCell>
        <mxCell id="f8xPi4oDnC_ocWhXf7jK-23" value="informstion view" style="text;html=1;strokeColor=none;fillColor=none;align=center;verticalAlign=middle;whiteSpace=wrap;rounded=0;fontColor=#0F0F0F;" vertex="1" parent="1">
          <mxGeometry x="680" y="300" width="40" height="20" as="geometry" />
        </mxCell>
      </root>
    </mxGraphModel>
  </diagram>
</mxfile>
